# xmcd
#
# Track frame offsets:
# 150
# 17777
# 38484
# 58104
# 77614
# 94370
# 111998
# 127775
# 147379
# 162072
# 179015
# 190805
# 205308
# 218450
# 236338
#
# Disc length: 3413 seconds
#
#
# Revision: 0
# Processed by: cddbd v1.5.2PL0 Copyright (c) Steve Scherf et al.
# Submitted via: FreeRIP 2.951 
#
DISCID=c80d530f
DTITLE=Various Artist - Country Series 01
DYEAR=1900
DGENRE=Country
TTITLE0=Alabama - Cheap Seats
TTITLE1=Garth Brooks - Ain't Going Down Till The Sun Comes Up
TTITLE2=Garth Brooks - Friends In Low Places
TTITLE3=Garth Brooks - Shameless
TTITLE4=Garth Brooks - The Dance
TTITLE5=John Berry - Your Love Amazes Me
TTITLE6=Holly Dunn - Daddy's Hands
TTITLE7=Vince Gill - Whenever You Come Around
TTITLE8=Sawyer Brown - Some Girls Do
TTITLE9=Sawyer Brown - The Walk
TTITLE10=Chris Ledoux - Whatcha Gonna Do With A Cowboy
TTITLE11=Chris Ledoux - Look At You Girl
TTITLE12=Chris Ledoux - Cadillac Ranch
TTITLE13=Tractors - Baby Likes To Rock It
TTITLE14=Neon Moon
EXTD=Bill's Custom Country Collection
EXTT0=
EXTT1=
EXTT2=
EXTT3=
EXTT4=
EXTT5=
EXTT6=
EXTT7=
EXTT8=
EXTT9=
EXTT10=
EXTT11=
EXTT12=
EXTT13=
EXTT14=
PLAYORDER=
